<svg width="268" height="135" viewBox="0 0 268 135" fill="none" xmlns="http://www.w3.org/2000/svg">
<path fill-rule="evenodd" clip-rule="evenodd" d="M27.0816 17.4725C21.1384 19.5272 16.7277 23.754 13.7414 30.2549C12.3959 33.1834 12.3859 33.3927 12.2137 61.9457L12.0398 90.6884H22.3701H32.7004L32.8614 80.5179L33.0229 70.3474L36.4768 77.4225C38.3758 81.3139 40.5615 85.8903 41.3333 87.5931L42.7365 90.6884H54.0042H65.2726L64.1394 88.7722C63.5168 87.7186 60.1531 82.0279 56.6657 76.1266L50.3246 65.3971L54.8739 56.9648C57.3755 52.327 60.3377 46.8744 61.4555 44.8474L63.4885 41.1624L52.3829 41.1707L41.2772 41.1789L37.1501 51.0464L33.0229 60.9139L32.8684 38.6566L32.714 16.3994L31.3944 16.4189C30.6686 16.4295 28.7277 16.9035 27.0816 17.4725ZM114.063 17.2024C105.788 19.4341 100.534 26.6814 99.5499 37.2222L99.182 41.1624H95.7293H92.2772V49.4168V57.6711H95.8148H99.3524V74.1798V90.6884H109.67H119.988V74.1798V57.6711H124.41H128.832V49.4168V41.1624H124.333H119.834L120.185 38.9514C120.679 35.8443 123.389 33.4977 126.483 33.4977H128.832V25.3064C128.832 18.381 128.688 17.0598 127.899 16.7573C126.295 16.1418 116.873 16.4448 114.063 17.2024ZM139.15 17.2319C135.717 18.7578 132.946 23.2022 132.972 27.1407C132.988 29.4407 134.696 33.388 136.288 34.8019C136.913 35.3567 138.401 36.2193 139.595 36.7181C147.578 40.0534 155.582 33.1687 153.934 24.3837C153.452 21.8178 150.47 18.2808 147.875 17.196C145.472 16.1919 141.452 16.2084 139.15 17.2319ZM68.1038 65.9254V90.6884H78.4217H88.7397V65.9254V41.1624H78.4217H68.1038V65.9254ZM133.549 65.9254V90.6884H143.867H154.185V65.9254V41.1624H143.867H133.549V65.9254ZM157.722 41.574C157.722 41.801 161.439 53.3252 165.983 67.1842L174.242 92.3823L173.024 95.6381C171.327 100.174 168.963 102.059 164.279 102.61C163.04 102.756 162.619 103.581 160.677 109.666L158.478 116.557L161.49 117.892C165.885 119.84 173.877 119.832 178.223 117.875C181.974 116.185 186.158 111.795 188.874 106.701C190.267 104.086 211.375 42.7661 211.375 41.3322C211.375 41.2385 206.634 41.1624 200.838 41.1624H190.301L189.921 43.6682C187.854 57.3303 184.626 76.5169 184.427 76.3188C184.291 76.1814 183.262 70.4046 182.142 63.4804C179.831 49.1915 179.448 47.7429 177.3 45.1905C174.661 42.0551 171.873 41.1901 164.355 41.1754C160.707 41.1683 157.722 41.3476 157.722 41.574ZM224.213 42.0403C220.941 42.8711 216.3 44.9629 214.166 46.569C213.196 47.2995 213.311 47.655 215.852 51.7751C217.353 54.2072 218.785 56.4176 219.035 56.6871C219.285 56.9565 220.626 56.5974 222.014 55.8887C225.439 54.1424 231.425 54.3947 234.248 56.4052C235.913 57.5903 237.907 60.8909 237.907 62.4598C237.907 62.7446 234.709 62.9774 230.801 62.9774C214.948 62.9774 207.566 67.3976 207.654 76.8359C207.714 83.2283 211.408 88.0394 217.649 89.8536C221.273 90.9072 225.712 90.6507 228.418 89.2321C230.359 88.2151 233.38 85.0136 234.525 82.7619L235.407 81.0255L236.773 85.2677L238.14 89.5092H247.494H256.849L256.653 74.9168C256.472 61.3796 256.361 60.0831 255.121 56.9913C252.413 50.2387 246.354 44.6864 239.425 42.6069C235.014 41.2839 228.195 41.0298 224.213 42.0403ZM231.066 68.5367C228.806 69.5202 226.705 72.3673 226.705 74.4451C226.705 75.3124 227.346 76.6437 228.152 77.4491C231.893 81.1906 237.318 77.08 237.318 70.5042V67.6942L235.107 67.7172C233.891 67.7302 232.072 68.0987 231.066 68.5367Z" fill="#364957"/>
<circle cx="143.519" cy="26.422" r="11.2023" fill="#FF8A00"/>
</svg>
